<mxfile host="app.diagrams.net" modified="2023-08-08T16:54:12.287Z" agent="Mozilla/5.0 (Windows NT 10.0; Win64; x64) AppleWebKit/537.36 (KHTML, like Gecko) Chrome/115.0.0.0 Safari/537.36" version="21.6.7" etag="TZuajXxOyb3zvnuH931o" type="github">
  <diagram name="PÃ¡gina-1" id="1UBCE8tzrmcKCweUl9zL">
    <mxGraphModel>
      <root>
        <mxCell id="0" />
        <mxCell id="1" parent="0" />
      </root>
    </mxGraphModel>
  </diagram>
</mxfile>
